# xmcd
#
# Track frame offsets: 
#        150
#        13982
#        31475
#        52510
#        72245
#        86476
#        99896
#        113605
#        131782
#        150132
#
# Disc length: 2257 seconds
#
# Revision: 0
# Processed by: cddbd v1.5.2PL0 Copyright (c) Steve Scherf et al.
# Submitted via: ExactAudioCopy v0.95b4
#
DISCID=6c08cf0a
DTITLE=Miko Marks - It Feels Good
DYEAR=2007
DGENRE=Country
TTITLE0=It Feels Good
TTITLE1=Locked and Loaded
TTITLE2=9 Years Pushin'
TTITLE3=Broken Heart
TTITLE4=Double Dog Cheater
TTITLE5=The Son My Daddy Never Had
TTITLE6=The Great Unknown
TTITLE7=Strong Enough To Cry
TTITLE8=That Walls To High To Climb
TTITLE9=So Much Love
EXTD=
EXTT0=
EXTT1=
EXTT2=
EXTT3=
EXTT4=
EXTT5=
EXTT6=
EXTT7=
EXTT8=
EXTT9=
PLAYORDER=
